<svg width="18" height="18" viewBox="0 0 18 18" fill="none" xmlns="http://www.w3.org/2000/svg">
<path d="M0.581778 6.03488L5.97783 5.25298L8.39001 0.377188C8.45589 0.243691 8.56428 0.135623 8.69817 0.0699344C9.03396 -0.0953466 9.44201 0.0423876 9.60991 0.377188L12.0221 5.25298L17.4181 6.03488C17.5669 6.05607 17.7029 6.126 17.8071 6.23195C17.933 6.36097 18.0023 6.53454 17.9999 6.71453C17.9975 6.89452 17.9236 7.0662 17.7943 7.19185L13.8902 10.987L14.8126 16.3459C14.8342 16.4705 14.8204 16.5987 14.7726 16.716C14.7249 16.8332 14.6452 16.9347 14.5425 17.0091C14.4398 17.0834 14.3183 17.1276 14.1918 17.1366C14.0652 17.1456 13.9386 17.119 13.8264 17.06L8.99996 14.5299L4.17348 17.06C4.04171 17.1299 3.88869 17.1532 3.74205 17.1278C3.37225 17.0642 3.1236 16.7146 3.18735 16.3459L4.10972 10.987L0.205606 7.19185C0.0993423 7.08802 0.0292091 6.9524 0.00795555 6.80407C-0.0494251 6.43325 0.209856 6.08998 0.581778 6.03488Z" fill="#F05423"/>
</svg>
